<?xml version="1.0" encoding="UTF-8"?>
<svg xmlns="http://www.w3.org/2000/svg" xmlns:xlink="http://www.w3.org/1999/xlink" width="48px" height="48px" viewBox="0 0 48 48" version="1.1">
<g id="surface1">
<path style=" stroke:none;fill-rule:nonzero;fill:rgb(18.431373%,25.098039%,41.568627%);fill-opacity:1;" d="M 38.191406 15.644531 L 38.191406 32.25 L 24.066406 40.621094 L 23.941406 40.734375 L 23.941406 46.949219 L 24.066406 47.070312 L 43.941406 35.578125 L 43.941406 12.421875 L 43.753906 12.375 L 38.128906 15.511719 L 38.160156 15.644531 "/>
<path style=" stroke:none;fill-rule:nonzero;fill:rgb(13.72549%,47.45098%,74.117647%);fill-opacity:1;" d="M 9.898438 32.398438 L 24.066406 40.621094 L 24.066406 47.070312 L 4.042969 35.535156 L 4.042969 12.464844 L 4.25 12.433594 L 9.839844 15.6875 L 9.898438 15.875 L 9.898438 32.398438 "/>
<path style=" stroke:none;fill-rule:nonzero;fill:rgb(1.176471%,68.627451%,93.72549%);fill-opacity:1;" d="M 9.898438 15.871094 L 4.042969 12.464844 L 24.023438 0.929688 L 43.957031 12.421875 L 38.191406 15.644531 L 24.023438 7.558594 L 9.898438 15.871094 "/>
<path style=" stroke:none;fill-rule:nonzero;fill:rgb(18.431373%,25.098039%,41.568627%);fill-opacity:1;" d="M 23.824219 30.5 L 23.671875 30.339844 L 23.671875 24.101562 L 23.824219 24.023438 L 23.859375 23.867188 L 29.210938 20.75 L 29.378906 20.785156 L 29.378906 27.21875 L 23.828125 30.503906 "/>
<path style=" stroke:none;fill-rule:nonzero;fill:rgb(13.72549%,47.45098%,74.117647%);fill-opacity:1;" d="M 18.179688 27.417969 L 18.179688 20.738281 L 18.332031 20.738281 L 23.773438 23.90625 L 23.820312 24.03125 L 23.820312 30.5 L 18.179688 27.417969 "/>
<path style=" stroke:none;fill-rule:nonzero;fill:rgb(1.176471%,68.627451%,93.72549%);fill-opacity:1;" d="M 23.734375 17.453125 L 18.179688 20.738281 L 23.824219 24.023438 L 29.375 20.78125 L 23.734375 17.453125 "/>
<path style=" stroke:none;fill-rule:nonzero;fill:rgb(18.431373%,25.098039%,41.568627%);fill-opacity:1;" d="M 16.917969 34.570312 L 16.761719 34.414062 L 16.761719 28.171875 L 16.917969 28.09375 L 16.953125 27.941406 L 22.304688 24.820312 L 22.46875 24.859375 L 22.46875 31.285156 L 16.921875 34.570312 "/>
<path style=" stroke:none;fill-rule:nonzero;fill:rgb(13.72549%,47.45098%,74.117647%);fill-opacity:1;" d="M 11.273438 31.5 L 11.273438 24.808594 L 11.425781 24.808594 L 16.875 27.972656 L 16.921875 28.09375 L 16.921875 34.570312 L 11.273438 31.5 "/>
<path style=" stroke:none;fill-rule:nonzero;fill:rgb(1.176471%,68.627451%,93.72549%);fill-opacity:1;" d="M 16.824219 21.523438 L 11.273438 24.808594 L 16.917969 28.09375 L 22.464844 24.855469 L 16.824219 21.523438 "/>
<path style=" stroke:none;fill-rule:nonzero;fill:rgb(18.431373%,25.098039%,41.568627%);fill-opacity:1;" d="M 31.226562 34.726562 L 31.074219 34.566406 L 31.074219 28.328125 L 31.226562 28.25 L 31.265625 28.09375 L 36.613281 24.976562 L 36.78125 25.011719 L 36.78125 31.441406 L 31.226562 34.726562 "/>
<path style=" stroke:none;fill-rule:nonzero;fill:rgb(13.72549%,47.45098%,74.117647%);fill-opacity:1;" d="M 25.582031 31.640625 L 25.582031 24.964844 L 25.734375 24.964844 L 31.179688 28.125 L 31.226562 28.25 L 31.226562 34.726562 L 25.582031 31.640625 "/>
<path style=" stroke:none;fill-rule:nonzero;fill:rgb(1.176471%,68.627451%,93.72549%);fill-opacity:1;" d="M 31.125 21.679688 L 25.574219 24.964844 L 31.21875 28.25 L 36.769531 25.007812 L 31.125 21.679688 "/>
<path style=" stroke:none;fill-rule:nonzero;fill:rgb(18.431373%,25.098039%,41.568627%);fill-opacity:1;" d="M 24.320312 38.796875 L 24.164062 38.640625 L 24.164062 32.398438 L 24.320312 32.320312 L 24.355469 32.167969 L 29.707031 29.046875 L 29.871094 29.085938 L 29.871094 35.511719 L 24.324219 38.796875 "/>
<path style=" stroke:none;fill-rule:nonzero;fill:rgb(13.72549%,47.45098%,74.117647%);fill-opacity:1;" d="M 18.675781 35.710938 L 18.675781 29.035156 L 18.828125 29.035156 L 24.269531 32.203125 L 24.316406 32.328125 L 24.316406 38.804688 L 18.675781 35.710938 "/>
<path style=" stroke:none;fill-rule:nonzero;fill:rgb(1.176471%,68.627451%,93.72549%);fill-opacity:1;" d="M 24.226562 25.75 L 18.675781 29.035156 L 24.320312 32.320312 L 29.867188 29.082031 L 24.226562 25.75 "/>
<path style=" stroke:none;fill-rule:nonzero;fill:rgb(18.431373%,25.098039%,41.568627%);fill-opacity:1;" d="M 23.824219 21.648438 L 23.671875 21.492188 L 23.671875 15.25 L 23.824219 15.171875 L 23.859375 15.019531 L 29.210938 11.894531 L 29.378906 11.933594 L 29.378906 18.375 L 23.828125 21.660156 "/>
<path style=" stroke:none;fill-rule:nonzero;fill:rgb(13.72549%,47.45098%,74.117647%);fill-opacity:1;" d="M 18.179688 18.5625 L 18.179688 11.886719 L 18.332031 11.886719 L 23.773438 15.054688 L 23.820312 15.179688 L 23.820312 21.648438 L 18.179688 18.5625 "/>
<path style=" stroke:none;fill-rule:nonzero;fill:rgb(1.176471%,68.627451%,93.72549%);fill-opacity:1;" d="M 23.734375 8.601562 L 18.179688 11.886719 L 23.824219 15.171875 L 29.375 11.933594 L 23.734375 8.601562 "/>
<path style=" stroke:none;fill-rule:nonzero;fill:rgb(18.431373%,25.098039%,41.568627%);fill-opacity:1;" d="M 16.917969 25.722656 L 16.761719 25.5625 L 16.761719 19.324219 L 16.917969 19.246094 L 16.953125 19.089844 L 22.304688 15.972656 L 22.46875 16.007812 L 22.46875 22.4375 L 16.921875 25.722656 "/>
<path style=" stroke:none;fill-rule:nonzero;fill:rgb(13.72549%,47.45098%,74.117647%);fill-opacity:1;" d="M 11.273438 22.636719 L 11.273438 15.957031 L 11.425781 15.957031 L 16.875 19.125 L 16.921875 19.25 L 16.921875 25.722656 L 11.273438 22.636719 "/>
<path style=" stroke:none;fill-rule:nonzero;fill:rgb(1.176471%,68.627451%,93.72549%);fill-opacity:1;" d="M 16.824219 12.675781 L 11.273438 15.960938 L 16.917969 19.246094 L 22.464844 16.003906 L 16.824219 12.675781 "/>
<path style=" stroke:none;fill-rule:nonzero;fill:rgb(18.431373%,25.098039%,41.568627%);fill-opacity:1;" d="M 31.226562 25.875 L 31.074219 25.71875 L 31.074219 19.476562 L 31.226562 19.398438 L 31.265625 19.246094 L 36.613281 16.125 L 36.78125 16.164062 L 36.78125 22.589844 L 31.226562 25.875 "/>
<path style=" stroke:none;fill-rule:nonzero;fill:rgb(13.72549%,47.45098%,74.117647%);fill-opacity:1;" d="M 25.582031 22.789062 L 25.582031 16.125 L 25.734375 16.125 L 31.175781 19.292969 L 31.222656 19.417969 L 31.222656 25.875 L 25.582031 22.789062 "/>
<path style=" stroke:none;fill-rule:nonzero;fill:rgb(1.176471%,68.627451%,93.72549%);fill-opacity:1;" d="M 31.125 12.828125 L 25.582031 16.125 L 31.226562 19.410156 L 36.777344 16.171875 L 31.125 12.828125 "/>
<path style=" stroke:none;fill-rule:nonzero;fill:rgb(18.431373%,25.098039%,41.568627%);fill-opacity:1;" d="M 24.320312 29.945312 L 24.164062 29.785156 L 24.164062 23.546875 L 24.320312 23.46875 L 24.355469 23.3125 L 29.707031 20.195312 L 29.871094 20.230469 L 29.871094 26.660156 L 24.324219 29.945312 "/>
<path style=" stroke:none;fill-rule:nonzero;fill:rgb(13.72549%,47.45098%,74.117647%);fill-opacity:1;" d="M 18.675781 26.859375 L 18.675781 20.183594 L 18.828125 20.183594 L 24.269531 23.351562 L 24.316406 23.476562 L 24.316406 29.945312 L 18.675781 26.859375 "/>
<path style=" stroke:none;fill-rule:nonzero;fill:rgb(1.176471%,68.627451%,93.72549%);fill-opacity:1;" d="M 24.226562 16.898438 L 18.675781 20.183594 L 24.320312 23.46875 L 29.867188 20.226562 L 24.226562 16.898438 "/>
</g>
</svg>
