<?xml version="1.0" encoding="UTF-8"?>
<svg xmlns="http://www.w3.org/2000/svg" xmlns:xlink="http://www.w3.org/1999/xlink" width="48px" height="48px" viewBox="0 0 48 48" version="1.1">
<g id="surface1">
<path style=" stroke:none;fill-rule:nonzero;fill:rgb(0%,0%,0%);fill-opacity:1;" d="M 10.695312 0.160156 C 10.585938 0.253906 9.957031 1.238281 9.300781 2.34375 L 8.109375 4.359375 L 7.265625 4.386719 C 6.796875 4.398438 6.328125 4.453125 6.207031 4.519531 C 5.851562 4.707031 5.792969 5.136719 5.832031 7.574219 L 5.859375 9.863281 L 6.121094 10.085938 C 6.355469 10.285156 6.476562 10.3125 7.132812 10.3125 C 7.773438 10.3125 7.875 10.332031 7.882812 10.472656 C 7.882812 10.566406 8.042969 11.992188 8.230469 13.640625 L 8.585938 16.640625 L 7.976562 16.695312 C 7.351562 16.753906 7.03125 16.96875 7.03125 17.335938 C 7.03125 17.820312 9.207031 36.28125 9.289062 36.488281 C 9.414062 36.796875 9.789062 36.9375 10.460938 36.9375 C 10.882812 36.9375 10.96875 36.964844 10.96875 37.105469 C 10.96875 37.3125 12.074219 46.914062 12.140625 47.324219 C 12.167969 47.484375 12.289062 47.710938 12.394531 47.8125 C 12.589844 47.992188 12.730469 48 14.972656 48 L 17.351562 48 L 17.578125 47.765625 C 17.859375 47.492188 17.878906 47.164062 17.632812 46.867188 C 17.457031 46.640625 17.417969 46.640625 15.460938 46.59375 L 13.460938 46.546875 L 12.917969 41.90625 C 12.628906 39.355469 12.382812 37.191406 12.375 37.097656 C 12.375 36.945312 12.992188 36.9375 24 36.9375 C 35.007812 36.9375 35.625 36.945312 35.625 37.097656 C 35.617188 37.191406 35.371094 39.355469 35.082031 41.90625 L 34.546875 46.546875 L 27.074219 46.59375 C 20.136719 46.640625 19.585938 46.648438 19.433594 46.800781 C 19.191406 47.042969 19.226562 47.605469 19.492188 47.820312 C 19.695312 47.992188 20.023438 48 27.554688 48 C 35.269531 48 35.410156 48 35.605469 47.8125 C 35.710938 47.710938 35.832031 47.484375 35.859375 47.324219 C 35.925781 46.914062 37.03125 37.3125 37.03125 37.105469 C 37.03125 36.964844 37.117188 36.9375 37.539062 36.9375 C 38.210938 36.9375 38.585938 36.796875 38.710938 36.488281 C 38.792969 36.28125 40.96875 17.820312 40.96875 17.335938 C 40.96875 16.96875 40.648438 16.753906 40.023438 16.695312 L 39.414062 16.640625 L 39.769531 13.640625 C 39.957031 11.992188 40.117188 10.566406 40.117188 10.472656 C 40.125 10.332031 40.226562 10.3125 40.867188 10.3125 C 41.523438 10.3125 41.644531 10.285156 41.878906 10.085938 L 42.140625 9.863281 L 42.167969 7.574219 C 42.207031 5.136719 42.148438 4.707031 41.792969 4.519531 C 41.671875 4.453125 41.203125 4.398438 40.734375 4.386719 L 39.890625 4.359375 L 38.699219 2.34375 C 38.042969 1.238281 37.414062 0.253906 37.304688 0.160156 C 37.117188 0.0078125 36.335938 0 24 0 C 11.664062 0 10.882812 0.0078125 10.695312 0.160156 Z M 37.378906 2.886719 L 38.242188 4.359375 L 26.839844 4.386719 L 15.429688 4.40625 L 15.214844 4.613281 C 14.90625 4.894531 14.925781 5.363281 15.242188 5.617188 L 15.496094 5.8125 L 40.6875 5.8125 L 40.6875 8.90625 L 7.3125 8.90625 L 7.3125 5.8125 L 10.125 5.8125 C 12.019531 5.8125 13.003906 5.773438 13.164062 5.710938 C 13.59375 5.511719 13.640625 4.789062 13.238281 4.546875 C 13.152344 4.5 12.328125 4.433594 11.417969 4.40625 L 9.757812 4.359375 L 10.621094 2.886719 L 11.484375 1.40625 L 36.515625 1.40625 Z M 38.71875 10.339844 C 38.71875 10.453125 38.054688 16.144531 38.015625 16.378906 L 37.960938 16.6875 L 35.90625 16.6875 C 33.695312 16.6875 33.441406 16.734375 33.300781 17.15625 C 33.195312 17.457031 33.367188 17.945312 33.609375 18.039062 C 33.695312 18.066406 35.054688 18.09375 36.617188 18.09375 C 38.183594 18.09375 39.46875 18.121094 39.46875 18.148438 C 39.46875 18.335938 37.492188 35.316406 37.453125 35.410156 C 37.425781 35.503906 34.640625 35.53125 24 35.53125 C 13.359375 35.53125 10.574219 35.503906 10.546875 35.410156 C 10.507812 35.316406 8.53125 18.335938 8.53125 18.148438 C 8.53125 18.121094 13.667969 18.09375 19.941406 18.09375 L 31.351562 18.09375 L 31.566406 17.886719 C 31.847656 17.625 31.855469 17.15625 31.585938 16.914062 C 31.398438 16.742188 31.058594 16.734375 20.710938 16.707031 L 10.039062 16.6875 L 9.984375 16.378906 C 9.945312 16.144531 9.28125 10.453125 9.28125 10.339844 C 9.28125 10.320312 15.910156 10.3125 24 10.3125 C 32.101562 10.3125 38.71875 10.320312 38.71875 10.339844 Z M 38.71875 10.339844 "/>
<path style=" stroke:none;fill-rule:nonzero;fill:rgb(0%,0%,0%);fill-opacity:1;" d="M 22.976562 20.960938 C 21.570312 21.335938 20.4375 22.398438 19.742188 23.980469 C 19.238281 25.132812 19.105469 26.71875 19.414062 28.003906 C 19.574219 28.667969 20.183594 29.886719 20.617188 30.414062 C 22.539062 32.710938 25.6875 32.632812 27.507812 30.242188 C 27.9375 29.671875 28.425781 28.648438 28.601562 27.9375 C 28.78125 27.234375 28.753906 25.601562 28.546875 24.84375 C 27.804688 22.03125 25.359375 20.324219 22.976562 20.960938 Z M 22.949219 22.941406 C 22.800781 23.351562 22.753906 23.710938 22.753906 24.375 C 22.753906 25.480469 22.882812 25.914062 23.597656 27.085938 L 24.140625 27.984375 L 24.140625 28.78125 C 24.140625 29.445312 24.101562 29.664062 23.886719 30.113281 C 23.746094 30.414062 23.578125 30.65625 23.511719 30.65625 C 23.222656 30.65625 22.238281 30.085938 21.882812 29.710938 C 21.394531 29.183594 21.160156 28.789062 20.90625 28.03125 C 20.617188 27.1875 20.617188 25.800781 20.898438 24.929688 C 21.09375 24.308594 21.65625 23.34375 21.992188 23.042969 C 22.191406 22.875 22.976562 22.40625 23.082031 22.40625 C 23.117188 22.40625 23.0625 22.648438 22.949219 22.941406 Z M 25.246094 22.554688 C 25.789062 22.835938 26.148438 23.175781 26.53125 23.738281 C 27.535156 25.246094 27.589844 27.441406 26.664062 29.023438 C 26.417969 29.4375 25.519531 30.335938 25.433594 30.253906 C 25.40625 30.226562 25.433594 29.980469 25.5 29.710938 C 25.660156 29.042969 25.574219 27.824219 25.320312 27.253906 C 25.21875 27.007812 24.992188 26.617188 24.835938 26.382812 C 24.320312 25.632812 24.160156 25.144531 24.148438 24.367188 C 24.148438 23.773438 24.195312 23.570312 24.449219 23.035156 C 24.609375 22.6875 24.789062 22.40625 24.84375 22.40625 C 24.898438 22.40625 25.078125 22.472656 25.246094 22.554688 Z M 25.246094 22.554688 "/>
</g>
</svg>
