<?xml version="1.0" encoding="UTF-8"?>
<svg xmlns="http://www.w3.org/2000/svg" xmlns:xlink="http://www.w3.org/1999/xlink" width="48px" height="48px" viewBox="0 0 48 48" version="1.1">
<g id="surface1">
<path style=" stroke:none;fill-rule:nonzero;fill:rgb(0%,0%,0%);fill-opacity:1;" d="M 25.148438 4.75 C 24.761719 4.753906 24.363281 4.769531 23.964844 4.800781 C 20.910156 5.035156 18.101562 5.519531 15.71875 6.574219 C 13.335938 7.632812 11.382812 9.285156 10.128906 11.785156 C 9.109375 13.828125 5.707031 18.058594 6.730469 22.664062 C 7 23.871094 7.394531 24.957031 7.898438 25.9375 C 6.625 26.628906 5.761719 27.976562 5.761719 29.519531 C 5.761719 31.734375 7.539062 33.542969 9.742188 33.59375 C 12.261719 38.992188 17.578125 42.71875 24 42.71875 C 30.375 42.71875 35.667969 39.28125 38.210938 34.078125 C 40.4375 34.046875 42.238281 32.230469 42.238281 30 C 42.238281 28.34375 41.25 26.917969 39.824219 26.28125 C 39.824219 26.222656 39.824219 26.164062 39.820312 26.109375 C 40.183594 25.363281 40.503906 24.550781 40.777344 23.660156 C 41.3125 21.929688 41.058594 19.488281 40.519531 17.167969 C 39.976562 14.84375 39.152344 12.6875 38.304688 11.527344 C 35.722656 8.003906 31.589844 5.117188 26.300781 4.78125 C 25.921875 4.757812 25.539062 4.75 25.148438 4.75 Z M 25.15625 5.710938 C 25.523438 5.707031 25.886719 5.71875 26.242188 5.742188 C 31.230469 6.054688 35.089844 8.761719 37.53125 12.09375 C 38.207031 13.015625 39.0625 15.152344 39.582031 17.386719 C 40.101562 19.617188 40.289062 21.992188 39.863281 23.378906 C 39.789062 23.621094 39.691406 23.820312 39.605469 24.035156 C 38.582031 17.785156 34.269531 12.519531 28.398438 10.734375 C 28.363281 10.722656 28.328125 10.710938 28.289062 10.699219 C 28.113281 10.648438 27.933594 10.597656 27.75 10.550781 C 27.679688 10.535156 27.609375 10.515625 27.539062 10.5 C 27.378906 10.460938 27.21875 10.425781 27.058594 10.390625 C 26.953125 10.371094 26.851562 10.351562 26.746094 10.332031 C 26.605469 10.308594 26.46875 10.28125 26.332031 10.261719 C 26.203125 10.242188 26.074219 10.226562 25.945312 10.207031 C 25.820312 10.191406 25.695312 10.175781 25.566406 10.160156 C 25.425781 10.148438 25.285156 10.136719 25.144531 10.128906 C 25.023438 10.117188 24.90625 10.105469 24.785156 10.101562 C 24.523438 10.085938 24.261719 10.078125 24 10.078125 C 23.726562 10.078125 23.457031 10.085938 23.191406 10.101562 C 23.101562 10.105469 23.011719 10.113281 22.921875 10.121094 C 22.746094 10.132812 22.570312 10.140625 22.394531 10.160156 C 22.269531 10.171875 22.144531 10.191406 22.019531 10.207031 C 21.890625 10.222656 21.761719 10.234375 21.632812 10.253906 C 21.480469 10.277344 21.324219 10.304688 21.167969 10.332031 C 21.074219 10.351562 20.980469 10.367188 20.886719 10.382812 C 20.710938 10.417969 20.542969 10.457031 20.371094 10.5 C 20.300781 10.515625 20.230469 10.53125 20.164062 10.546875 C 19.96875 10.59375 19.777344 10.648438 19.585938 10.703125 C 19.546875 10.714844 19.511719 10.722656 19.476562 10.734375 C 13.40625 12.535156 9.023438 17.886719 8.277344 24.414062 C 8.039062 23.800781 7.824219 23.160156 7.667969 22.457031 C 6.773438 18.421875 9.839844 14.507812 10.988281 12.214844 C 12.136719 9.917969 13.882812 8.441406 16.105469 7.453125 C 18.332031 6.464844 21.042969 5.988281 24.035156 5.757812 C 24.414062 5.730469 24.789062 5.714844 25.15625 5.710938 Z M 24 11.039062 C 24.261719 11.039062 24.523438 11.046875 24.785156 11.0625 C 24.785156 11.0625 24.785156 11.0625 24.789062 11.0625 C 24.816406 11.0625 24.84375 11.066406 24.871094 11.066406 C 25.097656 11.082031 25.320312 11.097656 25.539062 11.121094 C 25.640625 11.132812 25.738281 11.148438 25.835938 11.160156 C 25.984375 11.179688 26.136719 11.199219 26.285156 11.222656 C 26.382812 11.238281 26.472656 11.257812 26.570312 11.273438 C 26.726562 11.304688 26.882812 11.332031 27.035156 11.367188 C 27.117188 11.382812 27.195312 11.40625 27.273438 11.421875 C 27.433594 11.460938 27.59375 11.5 27.75 11.542969 C 27.847656 11.570312 27.945312 11.597656 28.046875 11.628906 C 28.179688 11.667969 28.316406 11.707031 28.449219 11.753906 C 28.558594 11.789062 28.664062 11.828125 28.769531 11.867188 C 28.890625 11.910156 29.015625 11.953125 29.132812 12 C 29.246094 12.042969 29.359375 12.089844 29.472656 12.140625 C 29.578125 12.183594 29.6875 12.230469 29.792969 12.277344 C 29.917969 12.332031 30.039062 12.390625 30.160156 12.449219 C 30.253906 12.496094 30.351562 12.542969 30.445312 12.589844 C 30.558594 12.648438 30.671875 12.707031 30.785156 12.769531 C 30.886719 12.828125 30.992188 12.882812 31.097656 12.941406 C 31.199219 13.003906 31.300781 13.0625 31.398438 13.125 C 31.5 13.1875 31.605469 13.25 31.703125 13.316406 C 31.816406 13.386719 31.925781 13.460938 32.03125 13.535156 C 32.117188 13.59375 32.199219 13.652344 32.28125 13.710938 C 32.398438 13.792969 32.515625 13.878906 32.628906 13.96875 C 32.707031 14.027344 32.785156 14.085938 32.859375 14.148438 C 32.96875 14.230469 33.070312 14.316406 33.175781 14.402344 C 33.257812 14.472656 33.34375 14.542969 33.425781 14.617188 C 33.523438 14.703125 33.621094 14.789062 33.714844 14.878906 C 33.792969 14.949219 33.871094 15.023438 33.949219 15.097656 C 34.050781 15.195312 34.148438 15.292969 34.246094 15.394531 C 34.316406 15.464844 34.386719 15.535156 34.453125 15.609375 C 34.546875 15.707031 34.640625 15.808594 34.734375 15.910156 C 34.804688 15.988281 34.871094 16.070312 34.941406 16.148438 C 35.03125 16.253906 35.125 16.363281 35.210938 16.472656 C 35.273438 16.546875 35.332031 16.621094 35.390625 16.695312 C 35.484375 16.8125 35.578125 16.933594 35.667969 17.058594 C 35.714844 17.121094 35.761719 17.183594 35.808594 17.25 C 35.90625 17.386719 36 17.523438 36.09375 17.664062 C 36.132812 17.722656 36.171875 17.78125 36.210938 17.839844 C 36.304688 17.984375 36.394531 18.128906 36.484375 18.277344 C 36.519531 18.332031 36.554688 18.390625 36.589844 18.449219 C 36.679688 18.601562 36.765625 18.757812 36.851562 18.914062 C 36.882812 18.964844 36.910156 19.023438 36.9375 19.078125 C 37.027344 19.238281 37.109375 19.402344 37.191406 19.570312 C 37.214844 19.617188 37.234375 19.664062 37.257812 19.710938 C 37.34375 19.886719 37.425781 20.0625 37.503906 20.246094 C 37.515625 20.273438 37.527344 20.304688 37.542969 20.335938 C 37.625 20.53125 37.707031 20.730469 37.785156 20.933594 C 37.785156 20.933594 37.785156 20.9375 37.785156 20.9375 C 37.792969 20.949219 37.792969 20.960938 37.800781 20.972656 C 37.882812 21.191406 37.960938 21.410156 38.03125 21.632812 C 38.496094 23.03125 38.777344 24.511719 38.855469 26.039062 C 38.855469 26.039062 38.855469 26.042969 38.859375 26.046875 C 38.867188 26.230469 38.871094 26.417969 38.875 26.601562 C 38.875 26.605469 38.875 26.609375 38.875 26.613281 C 38.875 26.707031 38.878906 26.800781 38.878906 26.894531 C 38.878906 26.898438 38.878906 26.898438 38.878906 26.902344 C 38.878906 27.183594 38.871094 27.460938 38.859375 27.738281 C 38.855469 27.8125 38.847656 27.882812 38.84375 27.953125 C 38.828125 28.160156 38.8125 28.367188 38.792969 28.570312 C 38.785156 28.648438 38.773438 28.726562 38.765625 28.804688 C 38.742188 29.007812 38.714844 29.207031 38.683594 29.40625 C 38.675781 29.46875 38.664062 29.527344 38.652344 29.589844 C 38.617188 29.8125 38.578125 30.03125 38.53125 30.246094 C 38.523438 30.285156 38.511719 30.324219 38.503906 30.359375 C 38.449219 30.609375 38.390625 30.859375 38.320312 31.105469 C 38.105469 31.898438 37.824219 32.660156 37.488281 33.386719 C 37.476562 33.414062 37.464844 33.441406 37.460938 33.472656 C 35.125 38.476562 30.113281 41.761719 24 41.761719 C 17.867188 41.761719 12.828125 38.179688 10.503906 32.984375 C 10.5 32.960938 10.492188 32.9375 10.480469 32.914062 C 10.15625 32.175781 9.882812 31.40625 9.667969 30.609375 C 9.667969 30.601562 9.664062 30.597656 9.664062 30.589844 C 9.597656 30.34375 9.539062 30.09375 9.484375 29.84375 C 9.480469 29.8125 9.472656 29.78125 9.464844 29.75 C 9.417969 29.53125 9.378906 29.308594 9.339844 29.082031 C 9.332031 29.023438 9.320312 28.964844 9.3125 28.90625 C 9.28125 28.695312 9.253906 28.480469 9.230469 28.265625 C 9.222656 28.203125 9.210938 28.140625 9.207031 28.078125 C 9.1875 27.875 9.171875 27.671875 9.160156 27.46875 C 9.152344 27.390625 9.144531 27.3125 9.140625 27.230469 C 9.128906 26.957031 9.121094 26.679688 9.121094 26.398438 C 9.121094 26.375 9.121094 26.347656 9.121094 26.320312 C 9.125 26.054688 9.132812 25.792969 9.144531 25.53125 C 9.15625 25.269531 9.175781 25.011719 9.203125 24.753906 C 9.203125 24.75 9.203125 24.742188 9.203125 24.734375 C 9.230469 24.484375 9.257812 24.238281 9.296875 23.992188 C 9.296875 23.976562 9.300781 23.960938 9.304688 23.945312 C 9.339844 23.707031 9.378906 23.46875 9.425781 23.234375 C 9.523438 22.734375 9.644531 22.246094 9.785156 21.765625 C 9.855469 21.527344 9.933594 21.289062 10.011719 21.054688 C 10.09375 20.820312 10.179688 20.589844 10.273438 20.359375 C 10.363281 20.132812 10.460938 19.90625 10.566406 19.683594 C 10.664062 19.464844 10.769531 19.253906 10.875 19.042969 C 10.917969 18.964844 10.960938 18.886719 11.003906 18.808594 C 11.078125 18.671875 11.152344 18.53125 11.230469 18.394531 C 11.265625 18.335938 11.304688 18.277344 11.339844 18.214844 C 11.429688 18.066406 11.515625 17.917969 11.609375 17.773438 C 11.636719 17.734375 11.664062 17.695312 11.6875 17.65625 C 11.796875 17.492188 11.90625 17.328125 12.023438 17.164062 C 12.164062 16.96875 12.308594 16.777344 12.457031 16.589844 C 12.460938 16.582031 12.46875 16.574219 12.476562 16.566406 C 12.617188 16.386719 12.765625 16.210938 12.914062 16.039062 C 12.945312 16.003906 12.976562 15.96875 13.007812 15.933594 C 13.132812 15.792969 13.261719 15.652344 13.390625 15.515625 C 13.457031 15.449219 13.523438 15.386719 13.589844 15.320312 C 13.695312 15.214844 13.796875 15.109375 13.90625 15.003906 C 13.945312 14.96875 13.984375 14.933594 14.023438 14.898438 C 14.164062 14.769531 14.304688 14.644531 14.445312 14.519531 C 14.625 14.367188 14.808594 14.21875 14.996094 14.074219 C 15.085938 14.003906 15.179688 13.9375 15.273438 13.871094 C 15.371094 13.796875 15.46875 13.722656 15.570312 13.652344 C 15.703125 13.558594 15.839844 13.46875 15.980469 13.382812 C 16.042969 13.339844 16.105469 13.296875 16.171875 13.253906 C 16.320312 13.160156 16.472656 13.074219 16.625 12.984375 C 16.683594 12.953125 16.738281 12.917969 16.792969 12.886719 C 16.875 12.839844 16.960938 12.796875 17.046875 12.753906 C 17.179688 12.683594 17.3125 12.609375 17.449219 12.542969 C 17.660156 12.4375 17.875 12.339844 18.09375 12.242188 C 18.09375 12.242188 18.097656 12.242188 18.097656 12.242188 C 18.242188 12.179688 18.390625 12.125 18.535156 12.066406 C 18.617188 12.03125 18.699219 11.996094 18.78125 11.964844 C 18.871094 11.933594 18.960938 11.90625 19.050781 11.875 C 19.195312 11.824219 19.339844 11.769531 19.488281 11.722656 C 19.71875 11.652344 19.953125 11.582031 20.191406 11.523438 C 20.195312 11.519531 20.195312 11.519531 20.199219 11.519531 C 20.292969 11.496094 20.386719 11.476562 20.480469 11.453125 C 20.628906 11.417969 20.777344 11.382812 20.929688 11.351562 C 21.003906 11.335938 21.082031 11.324219 21.160156 11.308594 C 21.332031 11.277344 21.503906 11.242188 21.679688 11.214844 C 21.929688 11.175781 22.183594 11.144531 22.4375 11.117188 C 22.949219 11.066406 23.472656 11.039062 24 11.039062 Z M 18.082031 15.511719 C 15.921875 15.515625 14.515625 16.355469 14.515625 16.355469 C 14.402344 16.421875 14.367188 16.570312 14.433594 16.683594 C 14.503906 16.796875 14.648438 16.835938 14.765625 16.765625 C 14.765625 16.765625 17.0625 15.375 20.335938 16.3125 C 20.417969 16.339844 20.511719 16.316406 20.574219 16.257812 C 20.640625 16.195312 20.664062 16.105469 20.640625 16.019531 C 20.621094 15.9375 20.550781 15.871094 20.464844 15.847656 C 19.601562 15.601562 18.800781 15.511719 18.082031 15.511719 Z M 29.621094 15.523438 C 29.453125 15.523438 29.296875 15.53125 29.140625 15.539062 C 27.910156 15.601562 27.054688 15.847656 27.054688 15.847656 C 26.96875 15.871094 26.902344 15.9375 26.878906 16.019531 C 26.855469 16.105469 26.878906 16.195312 26.945312 16.257812 C 27.007812 16.316406 27.101562 16.339844 27.1875 16.3125 C 27.1875 16.3125 30.476562 15.386719 33.253906 16.773438 C 33.332031 16.816406 33.425781 16.8125 33.5 16.765625 C 33.574219 16.71875 33.613281 16.632812 33.609375 16.546875 C 33.601562 16.457031 33.546875 16.382812 33.46875 16.34375 C 32.160156 15.691406 30.769531 15.515625 29.621094 15.523438 Z M 14.667969 18.492188 C 14.621094 18.492188 14.574219 18.503906 14.535156 18.527344 C 14.199219 18.734375 13.886719 18.976562 13.605469 19.25 C 13.507812 19.34375 13.507812 19.496094 13.601562 19.589844 C 13.691406 19.6875 13.84375 19.6875 13.941406 19.597656 C 14.195312 19.347656 14.480469 19.125 14.789062 18.9375 C 14.878906 18.882812 14.925781 18.773438 14.894531 18.667969 C 14.867188 18.566406 14.773438 18.492188 14.667969 18.492188 Z M 20.164062 18.679688 C 20.0625 18.6875 19.972656 18.757812 19.949219 18.855469 C 19.921875 18.953125 19.960938 19.058594 20.042969 19.117188 C 21.035156 19.816406 21.691406 20.90625 21.929688 22.140625 C 20.382812 21.898438 18.828125 21.804688 17.273438 21.859375 C 15.699219 21.917969 14.125 22.132812 12.546875 22.492188 C 12.625 21.828125 12.808594 21.195312 13.125 20.644531 C 13.171875 20.570312 13.175781 20.476562 13.132812 20.398438 C 13.089844 20.320312 13.007812 20.273438 12.917969 20.277344 C 12.832031 20.277344 12.75 20.324219 12.710938 20.402344 C 12.292969 21.128906 12.042969 21.960938 12.007812 22.847656 C 12.007812 22.859375 12.007812 22.871094 12.011719 22.882812 C 12.007812 22.933594 12 22.972656 12 23.039062 C 12 25.953125 14.367188 28.320312 17.28125 28.320312 C 20.191406 28.320312 22.558594 25.953125 22.558594 23.039062 C 22.558594 22.855469 22.542969 22.683594 22.523438 22.511719 C 22.527344 22.488281 22.527344 22.46875 22.523438 22.445312 C 22.351562 20.910156 21.519531 19.574219 20.320312 18.726562 C 20.28125 18.695312 20.234375 18.679688 20.1875 18.679688 C 20.179688 18.679688 20.171875 18.679688 20.164062 18.679688 Z M 33.664062 18.71875 C 33.5625 18.726562 33.476562 18.796875 33.445312 18.894531 C 33.417969 18.992188 33.457031 19.097656 33.539062 19.15625 C 34.480469 19.839844 35.109375 20.886719 35.359375 22.066406 C 34.648438 21.972656 33.9375 21.902344 33.226562 21.867188 C 30.824219 21.761719 28.410156 22.011719 25.992188 22.605469 C 26.027344 22.160156 26.085938 21.722656 26.238281 21.320312 C 26.289062 21.195312 26.226562 21.058594 26.101562 21.011719 C 25.976562 20.960938 25.839844 21.023438 25.792969 21.148438 C 25.570312 21.71875 25.449219 22.339844 25.441406 22.984375 C 25.441406 22.988281 25.441406 22.992188 25.441406 22.996094 C 25.441406 23.011719 25.441406 23.015625 25.441406 23.039062 C 25.441406 25.953125 27.808594 28.320312 30.71875 28.320312 C 33.632812 28.320312 36 25.953125 36 23.039062 C 36 22.792969 35.980469 22.554688 35.949219 22.320312 C 35.945312 22.300781 35.941406 22.285156 35.933594 22.269531 C 35.722656 20.832031 34.941406 19.585938 33.820312 18.769531 C 33.773438 18.734375 33.71875 18.71875 33.664062 18.71875 Z M 27.617188 18.824219 C 27.566406 18.828125 27.511719 18.84375 27.46875 18.878906 C 27.066406 19.195312 26.707031 19.570312 26.410156 19.992188 C 26.332031 20.101562 26.359375 20.25 26.46875 20.328125 C 26.574219 20.402344 26.726562 20.378906 26.800781 20.269531 C 27.074219 19.886719 27.398438 19.546875 27.765625 19.257812 C 27.847656 19.195312 27.882812 19.085938 27.847656 18.988281 C 27.816406 18.890625 27.722656 18.824219 27.617188 18.824219 Z M 18.480469 22.328125 C 18.878906 22.332031 19.277344 22.347656 19.671875 22.375 C 19.675781 22.375 19.679688 22.375 19.679688 22.375 C 19.800781 22.382812 19.925781 22.398438 20.046875 22.40625 C 20.714844 22.46875 21.386719 22.554688 22.054688 22.675781 C 22.066406 22.796875 22.078125 22.917969 22.078125 23.039062 C 22.078125 25.695312 19.933594 27.839844 17.28125 27.839844 C 14.628906 27.839844 12.484375 25.699219 12.480469 23.046875 C 13.605469 22.761719 14.730469 22.558594 15.851562 22.441406 C 15.929688 22.433594 16.011719 22.421875 16.089844 22.414062 C 16.210938 22.402344 16.328125 22.402344 16.445312 22.390625 C 16.296875 22.613281 16.277344 22.898438 16.402344 23.136719 C 16.527344 23.371094 16.773438 23.519531 17.039062 23.519531 C 17.320312 23.519531 17.574219 23.359375 17.691406 23.101562 C 17.8125 22.847656 17.769531 22.550781 17.589844 22.335938 C 17.886719 22.328125 18.183594 22.320312 18.480469 22.328125 Z M 32.257812 22.328125 C 32.574219 22.328125 32.886719 22.332031 33.203125 22.347656 C 33.964844 22.390625 34.726562 22.472656 35.488281 22.59375 C 35.503906 22.742188 35.519531 22.890625 35.519531 23.039062 C 35.519531 25.695312 33.375 27.839844 30.71875 27.839844 C 28.113281 27.839844 26.011719 25.761719 25.941406 23.171875 C 27.039062 22.867188 28.136719 22.644531 29.234375 22.503906 C 29.613281 22.460938 29.988281 22.421875 30.367188 22.390625 C 30.214844 22.613281 30.199219 22.898438 30.324219 23.136719 C 30.449219 23.371094 30.691406 23.519531 30.960938 23.519531 C 31.242188 23.519531 31.496094 23.355469 31.613281 23.101562 C 31.730469 22.847656 31.691406 22.550781 31.507812 22.335938 C 31.757812 22.328125 32.007812 22.324219 32.257812 22.328125 Z M 24.71875 26.878906 C 24.621094 26.878906 24.53125 26.9375 24.496094 27.027344 C 24.457031 27.117188 24.480469 27.222656 24.550781 27.289062 C 24.550781 27.289062 25.132812 27.875 25.53125 28.5625 C 25.730469 28.902344 25.878906 29.265625 25.898438 29.566406 C 25.917969 29.863281 25.84375 30.082031 25.546875 30.28125 C 25.246094 30.480469 24.9375 30.503906 24.601562 30.425781 C 24.265625 30.347656 23.914062 30.152344 23.601562 29.925781 C 22.972656 29.46875 22.507812 28.890625 22.507812 28.890625 C 22.425781 28.785156 22.273438 28.769531 22.171875 28.851562 C 22.066406 28.933594 22.050781 29.085938 22.132812 29.191406 C 22.132812 29.191406 22.625 29.8125 23.320312 30.3125 C 23.664062 30.566406 24.0625 30.792969 24.492188 30.894531 C 24.921875 30.996094 25.394531 30.957031 25.8125 30.679688 C 26.238281 30.398438 26.402344 29.957031 26.378906 29.535156 C 26.351562 29.113281 26.167969 28.695312 25.945312 28.320312 C 25.507812 27.5625 24.890625 26.949219 24.890625 26.949219 C 24.84375 26.902344 24.78125 26.878906 24.71875 26.878906 Z M 8.171875 26.925781 C 8.230469 28.898438 8.621094 30.785156 9.289062 32.523438 C 7.835938 32.257812 6.71875 31.050781 6.71875 29.519531 C 6.71875 28.414062 7.308594 27.476562 8.171875 26.925781 Z M 39.828125 27.40625 C 40.691406 27.957031 41.28125 28.894531 41.28125 30 C 41.28125 31.542969 40.152344 32.757812 38.683594 33.015625 C 39.371094 31.292969 39.769531 29.40625 39.828125 27.40625 Z M 24.613281 34.816406 C 21.929688 34.835938 19.84375 35.53125 19.84375 35.53125 C 19.761719 35.554688 19.695312 35.625 19.675781 35.710938 C 19.65625 35.796875 19.6875 35.886719 19.753906 35.945312 C 19.820312 36 19.914062 36.019531 19.996094 35.988281 C 19.996094 35.988281 24.71875 34.441406 28.957031 35.984375 C 29.082031 36.03125 29.21875 35.96875 29.265625 35.84375 C 29.3125 35.71875 29.246094 35.578125 29.121094 35.535156 C 28.011719 35.128906 26.878906 34.925781 25.800781 34.851562 C 25.394531 34.824219 25 34.8125 24.613281 34.816406 Z M 24.613281 34.816406 "/>
</g>
</svg>
