<?xml version="1.0" encoding="UTF-8"?>
<svg xmlns="http://www.w3.org/2000/svg" xmlns:xlink="http://www.w3.org/1999/xlink" width="48px" height="48px" viewBox="0 0 48 48" version="1.1">
<g id="surface1">
<path style=" stroke:none;fill-rule:nonzero;fill:rgb(0%,0%,0%);fill-opacity:1;" d="M 4.078125 2.664062 C 3.335938 2.992188 3.195312 3.449219 3.1875 5.605469 L 3.1875 7.3125 L 0 13.6875 L 0 15.019531 C 0 16.707031 0.101562 17.390625 0.449219 18.140625 C 0.9375 19.171875 1.753906 19.894531 2.859375 20.269531 L 3.328125 20.429688 L 3.355469 30.179688 L 3.375 39.9375 L 2.550781 39.9375 C 1.855469 39.9375 1.648438 39.976562 1.246094 40.171875 C 0.261719 40.667969 0 41.296875 0 43.191406 C 0 44.699219 0.0859375 45.027344 0.554688 45.308594 C 0.804688 45.460938 2.324219 45.46875 24 45.46875 C 45.675781 45.46875 47.195312 45.460938 47.445312 45.308594 C 47.914062 45.027344 48 44.699219 48 43.191406 C 48 41.296875 47.738281 40.667969 46.753906 40.171875 C 46.351562 39.976562 46.144531 39.9375 45.449219 39.9375 L 44.625 39.9375 L 44.644531 30.179688 L 44.671875 20.410156 L 45.046875 20.296875 C 46.304688 19.921875 47.230469 19.039062 47.71875 17.765625 C 47.90625 17.277344 47.933594 16.976562 47.980469 15.46875 L 48.027344 13.734375 L 46.445312 10.59375 L 44.859375 7.453125 L 44.8125 5.53125 C 44.765625 3.421875 44.710938 3.207031 44.128906 2.773438 L 43.867188 2.578125 L 27.449219 2.550781 L 11.023438 2.53125 L 10.808594 2.738281 C 10.433594 3.09375 10.574219 3.636719 11.101562 3.84375 C 11.269531 3.910156 16.519531 3.9375 27.382812 3.9375 L 43.414062 3.9375 L 43.386719 5.316406 L 43.359375 6.703125 L 4.640625 6.703125 L 4.613281 5.316406 L 4.585938 3.9375 L 6.261719 3.9375 C 7.246094 3.9375 8.0625 3.890625 8.242188 3.835938 C 8.746094 3.65625 8.886719 3.09375 8.503906 2.738281 C 8.296875 2.539062 8.210938 2.53125 6.320312 2.53125 C 4.902344 2.539062 4.285156 2.570312 4.078125 2.664062 Z M 8.597656 8.269531 C 8.578125 8.335938 8.183594 9.429688 7.726562 10.707031 L 6.898438 13.03125 L 1.875 13.03125 L 4.3125 8.15625 L 6.476562 8.15625 C 8.175781 8.15625 8.632812 8.183594 8.597656 8.269531 Z M 14.503906 8.269531 C 14.484375 8.335938 14.242188 9.429688 13.96875 10.707031 L 13.460938 13.03125 L 10.949219 13.03125 C 9.570312 13.03125 8.4375 12.992188 8.4375 12.957031 C 8.4375 12.917969 8.820312 11.832031 9.28125 10.546875 C 9.75 9.261719 10.125 8.195312 10.125 8.183594 C 10.125 8.164062 11.117188 8.15625 12.335938 8.15625 C 14.070312 8.15625 14.539062 8.183594 14.503906 8.269531 Z M 20.34375 8.269531 C 20.34375 8.335938 20.277344 9.429688 20.183594 10.707031 L 20.023438 13.03125 L 14.90625 13.03125 L 14.953125 12.816406 C 15.046875 12.414062 15.9375 8.230469 15.9375 8.195312 C 15.9375 8.175781 16.929688 8.15625 18.140625 8.15625 C 19.835938 8.15625 20.34375 8.183594 20.34375 8.269531 Z M 26.335938 9.769531 C 26.390625 10.660156 26.476562 11.757812 26.503906 12.207031 L 26.558594 13.03125 L 21.441406 13.03125 L 21.496094 12.207031 C 21.523438 11.757812 21.609375 10.660156 21.664062 9.769531 L 21.777344 8.15625 L 26.222656 8.15625 Z M 32.0625 8.195312 C 32.0625 8.230469 32.953125 12.414062 33.046875 12.816406 L 33.09375 13.03125 L 27.976562 13.03125 L 27.816406 10.707031 C 27.722656 9.429688 27.65625 8.335938 27.65625 8.269531 C 27.65625 8.183594 28.164062 8.15625 29.859375 8.15625 C 31.070312 8.15625 32.0625 8.175781 32.0625 8.195312 Z M 37.875 8.183594 C 37.875 8.195312 38.257812 9.261719 38.71875 10.546875 C 39.1875 11.832031 39.5625 12.917969 39.5625 12.957031 C 39.5625 12.992188 38.429688 13.03125 37.050781 13.03125 L 34.539062 13.03125 L 34.03125 10.707031 C 33.757812 9.429688 33.515625 8.335938 33.496094 8.269531 C 33.460938 8.183594 33.929688 8.15625 35.664062 8.15625 C 36.882812 8.15625 37.875 8.164062 37.875 8.183594 Z M 44.90625 10.59375 L 46.125 13.03125 L 41.101562 13.03125 L 40.273438 10.707031 C 39.816406 9.429688 39.421875 8.335938 39.402344 8.269531 C 39.367188 8.183594 39.824219 8.15625 41.523438 8.15625 L 43.6875 8.15625 Z M 6.65625 15.730469 C 6.65625 16.996094 6.648438 17.042969 6.367188 17.617188 C 5.859375 18.617188 4.96875 19.105469 3.796875 19.011719 C 2.832031 18.929688 2.082031 18.394531 1.679688 17.484375 C 1.5 17.101562 1.460938 16.800781 1.425781 15.722656 L 1.378906 14.4375 L 6.65625 14.4375 Z M 13.292969 15.816406 C 13.265625 17.023438 13.238281 17.25 13.058594 17.585938 C 12.007812 19.574219 9.242188 19.507812 8.335938 17.484375 C 8.15625 17.089844 8.109375 16.808594 8.082031 15.722656 L 8.042969 14.4375 L 13.332031 14.4375 Z M 19.96875 15.65625 C 19.96875 17.082031 19.808594 17.644531 19.246094 18.226562 C 18.214844 19.285156 16.472656 19.304688 15.496094 18.273438 C 14.886719 17.617188 14.773438 17.25 14.738281 15.769531 L 14.699219 14.4375 L 19.96875 14.4375 Z M 26.625 15.589844 C 26.625 17.015625 26.492188 17.53125 25.949219 18.140625 C 24.890625 19.339844 23.109375 19.339844 22.050781 18.140625 C 21.507812 17.53125 21.375 17.015625 21.375 15.589844 L 21.375 14.4375 L 26.625 14.4375 Z M 33.261719 15.769531 C 33.234375 16.949219 33.207031 17.15625 33.019531 17.53125 C 32.136719 19.21875 30.046875 19.566406 28.753906 18.226562 C 28.191406 17.644531 28.03125 17.082031 28.03125 15.65625 L 28.03125 14.4375 L 33.300781 14.4375 Z M 39.917969 15.722656 C 39.890625 16.808594 39.84375 17.089844 39.664062 17.484375 C 38.757812 19.507812 35.992188 19.574219 34.941406 17.585938 C 34.761719 17.25 34.734375 17.023438 34.707031 15.816406 L 34.667969 14.4375 L 39.957031 14.4375 Z M 46.574219 15.722656 C 46.539062 16.800781 46.5 17.101562 46.320312 17.484375 C 45.917969 18.394531 45.167969 18.929688 44.203125 19.011719 C 43.03125 19.105469 42.140625 18.617188 41.632812 17.617188 C 41.351562 17.042969 41.34375 16.996094 41.34375 15.730469 L 41.34375 14.4375 L 46.621094 14.4375 Z M 8.71875 19.949219 C 9.328125 20.304688 10.085938 20.464844 10.96875 20.417969 C 11.664062 20.390625 11.886719 20.335938 12.429688 20.0625 C 12.816406 19.875 13.273438 19.546875 13.554688 19.265625 L 14.023438 18.777344 L 14.644531 19.359375 C 15.515625 20.183594 16.039062 20.382812 17.390625 20.390625 C 18.375 20.390625 18.460938 20.371094 19.070312 20.070312 C 19.433594 19.894531 19.914062 19.554688 20.203125 19.257812 L 20.710938 18.75 L 20.960938 19.078125 C 21.300781 19.519531 22.199219 20.109375 22.820312 20.289062 C 23.464844 20.476562 24.535156 20.476562 25.179688 20.289062 C 25.800781 20.109375 26.699219 19.519531 27.039062 19.078125 L 27.289062 18.75 L 27.796875 19.257812 C 28.085938 19.554688 28.566406 19.894531 28.929688 20.070312 C 29.539062 20.371094 29.625 20.390625 30.609375 20.390625 C 31.960938 20.382812 32.484375 20.183594 33.355469 19.359375 L 33.976562 18.777344 L 34.445312 19.265625 C 34.726562 19.546875 35.183594 19.875 35.570312 20.0625 C 36.113281 20.335938 36.335938 20.390625 37.03125 20.417969 C 38.351562 20.484375 39.273438 20.136719 40.164062 19.226562 L 40.613281 18.769531 L 41.117188 19.273438 C 41.644531 19.800781 42.140625 20.101562 42.789062 20.289062 L 43.171875 20.398438 L 43.199219 30.167969 L 43.21875 39.9375 L 16.78125 39.9375 L 16.78125 32.007812 C 16.78125 23.230469 16.808594 23.671875 16.179688 23.222656 L 15.890625 23.015625 L 11.390625 23.015625 C 6.429688 23.015625 6.636719 22.988281 6.214844 23.605469 C 6.054688 23.851562 6.046875 24.300781 6.019531 31.894531 L 6 39.9375 L 4.78125 39.9375 L 4.800781 30.167969 L 4.828125 20.398438 L 5.210938 20.289062 C 5.859375 20.101562 6.355469 19.800781 6.871094 19.273438 L 7.359375 18.777344 L 7.875 19.265625 C 8.15625 19.527344 8.539062 19.835938 8.71875 19.949219 Z M 15.375 32.15625 L 15.375 39.9375 L 7.40625 39.9375 L 7.40625 24.375 L 15.375 24.375 Z M 46.320312 41.617188 C 46.59375 41.886719 46.59375 41.90625 46.59375 42.976562 L 46.59375 44.0625 L 1.40625 44.0625 L 1.40625 42.976562 C 1.40625 41.90625 1.40625 41.886719 1.679688 41.617188 L 1.949219 41.34375 L 46.050781 41.34375 Z M 46.320312 41.617188 "/>
<path style=" stroke:none;fill-rule:nonzero;fill:rgb(0%,0%,0%);fill-opacity:1;" d="M 18.984375 23.15625 C 18.769531 23.257812 18.515625 23.484375 18.421875 23.644531 C 18.242188 23.945312 18.234375 24.148438 18.234375 29.90625 C 18.234375 35.457031 18.242188 35.878906 18.402344 36.167969 C 18.496094 36.335938 18.703125 36.5625 18.871094 36.65625 C 19.164062 36.835938 19.425781 36.84375 29.773438 36.84375 L 40.378906 36.84375 L 40.695312 36.628906 C 41.371094 36.1875 41.34375 36.429688 41.34375 29.953125 C 41.34375 24.394531 41.335938 24.121094 41.15625 23.738281 C 41.015625 23.417969 40.882812 23.296875 40.554688 23.148438 C 40.152344 22.96875 39.945312 22.96875 35.632812 22.988281 C 31.367188 23.015625 31.132812 23.023438 30.945312 23.195312 C 30.695312 23.429688 30.683594 23.933594 30.9375 24.1875 C 31.117188 24.367188 31.246094 24.375 35.53125 24.375 L 39.9375 24.375 L 39.9375 35.4375 L 19.6875 35.4375 L 19.6875 24.375 L 28.378906 24.375 L 28.574219 24.160156 C 28.828125 23.886719 28.835938 23.53125 28.601562 23.242188 L 28.425781 23.015625 L 23.886719 22.988281 C 19.507812 22.96875 19.351562 22.96875 18.984375 23.15625 Z M 18.984375 23.15625 "/>
<path style=" stroke:none;fill-rule:nonzero;fill:rgb(0%,0%,0%);fill-opacity:1;" d="M 13.171875 30.675781 C 12.804688 30.871094 12.75 31.039062 12.75 31.902344 C 12.75 32.839844 12.816406 33.019531 13.210938 33.179688 C 13.433594 33.273438 13.527344 33.273438 13.761719 33.148438 C 14.117188 32.960938 14.15625 32.859375 14.15625 31.921875 C 14.15625 30.992188 14.117188 30.882812 13.773438 30.703125 C 13.460938 30.535156 13.414062 30.535156 13.171875 30.675781 Z M 13.171875 30.675781 "/>
</g>
</svg>
